<?xml version="1.0" standalone="no"?>
<!DOCTYPE svg PUBLIC "-//W3C//DTD SVG 20010904//EN"
 "http://www.w3.org/TR/2001/REC-SVG-20010904/DTD/svg10.dtd">
<svg version="1.0" xmlns="http://www.w3.org/2000/svg"
 width="789.000000pt" height="800.000000pt" viewBox="0 0 789.000000 800.000000"
 preserveAspectRatio="xMidYMid meet">
<metadata>
Created by potrace 1.16, written by Peter Selinger 2001-2019
</metadata>
<g transform="translate(0.000000,800.000000) scale(0.100000,-0.100000)"
fill="#000000" stroke="none">
<path d="M1027 7352 c-16 -17 -17 -260 -17 -3290 l0 -3272 23 -15 c21 -13 228
-15 1891 -13 l1868 3 21 29 c12 17 63 89 112 161 50 72 153 222 230 333 77
111 276 399 443 639 l302 437 0 1860 0 1861 -626 626 c-344 344 -639 633 -654
642 -26 16 -168 17 -1802 17 -1707 0 -1776 -1 -1791 -18z m3505 -87 c2 -3 -1
-31 -8 -62 -62 -293 -86 -404 -94 -438 -5 -22 -23 -107 -40 -190 -17 -82 -46
-220 -65 -305 -18 -85 -59 -278 -91 -429 l-57 -274 22 -18 c26 -21 -34 -36
671 171 821 241 919 270 930 270 7 0 10 -601 10 -1793 l0 -1793 -68 -100 c-37
-54 -110 -160 -162 -234 -51 -74 -137 -198 -190 -275 -324 -470 -578 -837
-612 -883 l-39 -52 -1813 0 -1814 0 -7 113 c-3 61 -5 171 -3 242 l3 130 573 5
c494 4 574 7 582 20 12 19 12 27 0 51 -10 18 -27 19 -573 19 -309 0 -568 4
-575 8 -10 7 -12 567 -10 2908 1 1594 3 2902 5 2907 5 8 3416 10 3425 2z m665
-612 c309 -312 557 -570 552 -574 -5 -3 -244 -74 -532 -159 -287 -84 -610
-179 -717 -211 -107 -32 -198 -55 -202 -51 -4 4 17 120 47 257 130 609 209
980 236 1115 38 191 38 190 47 190 3 0 260 -255 569 -567z"/>
<path d="M1326 6728 c-14 -20 -16 -133 -16 -1021 0 -669 3 -1005 10 -1018 10
-19 33 -19 1091 -19 l1079 0 11 27 c7 18 9 356 7 1024 -2 826 -5 999 -17 1012
-12 16 -100 17 -1082 17 l-1068 0 -15 -22z m2084 -1024 l0 -945 -122 3 -123 3
-2 469 c-1 375 -4 471 -15 481 -7 7 -110 52 -228 100 -118 48 -221 90 -227 94
-9 5 -1 22 27 60 95 126 96 325 3 448 -51 68 -79 91 -153 126 -59 29 -74 32
-160 32 -86 0 -101 -3 -162 -32 -223 -106 -294 -380 -147 -575 29 -39 35 -54
26 -60 -7 -4 -110 -46 -228 -93 -117 -48 -222 -96 -231 -107 -17 -19 -18 -57
-18 -484 l0 -464 -120 0 -120 0 0 945 0 945 988 2 c543 2 993 1 1000 -1 9 -2
12 -201 12 -947z m-871 752 c62 -32 125 -104 147 -168 20 -61 15 -156 -11
-211 -104 -220 -397 -230 -522 -18 -35 59 -44 171 -18 238 61 159 254 235 404
159z m-249 -626 c71 -25 168 -25 240 0 l55 19 225 -91 c124 -49 233 -94 243
-100 16 -8 17 -38 15 -451 l-3 -442 -658 -3 -657 -2 2 447 3 448 235 96 c129
53 237 97 240 98 3 0 30 -8 60 -19z"/>
<path d="M4120 4994 c-88 -17 -184 -59 -266 -115 -104 -71 -200 -225 -230
-369 -22 -106 -14 -301 16 -390 68 -201 224 -343 425 -385 172 -36 471 1 504
63 13 24 -22 162 -44 179 -13 9 -28 7 -73 -10 -47 -17 -80 -21 -187 -21 -123
-1 -133 1 -192 28 -150 69 -220 206 -210 411 7 159 58 263 161 333 104 69 268
87 406 42 87 -28 99 -23 120 49 9 28 20 55 25 60 6 6 40 -84 92 -242 213 -658
282 -868 288 -877 4 -6 54 -10 120 -10 l113 0 26 68 c30 81 137 377 216 602
32 91 88 247 124 347 36 100 63 190 59 198 -9 25 -47 35 -134 35 -62 0 -83 -4
-97 -18 -9 -9 -48 -109 -86 -222 -187 -552 -213 -622 -220 -604 -4 11 -34 102
-66 204 -32 102 -84 266 -115 365 -32 99 -62 195 -67 213 -15 53 -44 65 -147
61 -76 -3 -92 -7 -105 -24 -14 -20 -15 -19 -78 4 -54 20 -85 24 -208 27 -80 1
-156 0 -170 -2z m313 -100 c26 -6 46 -28 35 -39 -2 -3 -36 2 -74 10 -271 57
-505 -58 -594 -293 -46 -122 -46 -312 1 -437 88 -236 329 -337 643 -268 22 4
27 2 24 -8 -13 -39 -257 -62 -373 -35 -247 59 -376 219 -392 486 -12 211 66
392 212 494 121 85 204 107 370 101 66 -3 133 -8 148 -11z m318 -34 c4 -14 48
-153 98 -310 79 -250 166 -541 185 -622 8 -37 50 -49 75 -22 10 11 26 51 36
89 10 39 80 254 156 480 77 225 139 411 139 413 0 2 12 2 28 0 15 -2 26 -7 25
-13 -2 -10 -74 -215 -275 -780 l-93 -260 -50 -3 -51 -3 -168 518 c-93 285
-171 524 -174 531 -3 10 4 13 28 10 26 -2 35 -9 41 -28z"/>
<path d="M1390 4171 c-16 -31 -13 -293 4 -317 14 -19 37 -19 991 -22 667 -1
982 1 995 8 19 10 20 22 20 168 0 110 -4 162 -12 170 -9 9 -245 12 -1000 12
-966 0 -988 0 -998 -19z m1920 -156 l0 -85 -917 2 -918 3 1 40 c0 22 1 59 2
83 l2 42 915 0 915 0 0 -85z"/>
<path d="M1396 3714 c-13 -13 -16 -42 -16 -163 0 -131 2 -150 18 -164 17 -16
100 -17 991 -17 651 0 979 3 992 10 18 10 19 23 19 168 0 110 -4 162 -12 170
-9 9 -244 12 -994 12 -880 0 -984 -2 -998 -16z m1909 -164 l0 -85 -915 0 -915
0 -2 70 c-1 39 1 78 3 88 5 16 55 17 917 15 l912 -3 0 -85z"/>
<path d="M1402 3238 c-8 -8 -12 -59 -12 -164 0 -125 3 -155 16 -168 14 -14
204 -16 1948 -16 1785 0 1935 1 1947 17 10 11 15 56 17 155 3 115 1 143 -12
164 l-16 24 -1938 0 c-1494 0 -1941 -3 -1950 -12z m3813 -168 l0 -85 -1845 -3
c-1015 -1 -1855 0 -1867 3 -21 5 -23 11 -23 84 0 43 3 81 7 84 3 4 844 6 1867
5 l1861 -3 0 -85z"/>
<path d="M1402 2658 c-8 -8 -12 -60 -12 -168 0 -108 4 -160 12 -168 9 -9 456
-12 1949 -12 1787 0 1938 1 1950 17 10 11 15 56 17 155 3 115 1 143 -12 164
l-16 24 -1938 0 c-1494 0 -1941 -3 -1950 -12z m3813 -165 l0 -82 -1868 -3
-1867 -3 0 81 c0 44 3 84 7 87 3 4 844 6 1867 5 l1861 -3 0 -82z"/>
<path d="M2460 1421 c-14 -27 -13 -37 6 -55 13 -14 62 -16 379 -16 317 0 366
2 379 16 19 18 20 28 6 55 -10 18 -25 19 -385 19 -360 0 -375 -1 -385 -19z"/>
<path d="M6325 7031 c-19 -8 -20 -20 -25 -227 l-5 -219 -68 -3 c-62 -3 -69 -5
-77 -28 -6 -16 -10 -896 -10 -2358 l0 -2333 96 -234 c52 -129 127 -312 165
-408 89 -222 94 -231 122 -231 12 0 27 4 33 8 7 4 46 90 87 192 157 388 206
507 239 580 l33 75 1 2005 c1 1103 2 2020 3 2038 l1 32 130 0 130 0 0 -976 c0
-653 3 -982 10 -995 12 -21 50 -25 68 -7 17 17 17 2609 0 2626 -9 9 -79 12
-255 12 l-243 0 0 214 c0 211 0 215 -22 230 -18 13 -55 16 -208 15 -102 0
-194 -4 -205 -8z m343 -268 l-3 -178 -135 0 -135 0 -3 178 -2 177 140 0 140 0
-2 -177z m150 -2560 l2 -2283 -185 0 -185 0 0 1263 c0 969 -3 1266 -12 1275
-15 15 -51 15 -66 0 -9 -9 -12 -306 -12 -1275 l0 -1263 -60 0 -60 0 0 2285 0
2285 288 -2 287 -3 3 -2282z m360 2045 l2 -238 -129 0 c-94 0 -130 3 -133 13
-7 19 -9 434 -2 452 5 13 25 15 133 13 l126 -3 3 -237z m-388 -4437 c0 -5 -51
-135 -114 -288 -62 -154 -117 -290 -121 -304 -4 -13 -12 -30 -18 -37 -12 -16
-13 -14 -147 320 -56 139 -108 266 -116 282 -8 16 -14 31 -14 33 0 1 119 3
265 3 154 0 265 -4 265 -9z"/>
<path d="M6372 5288 c-9 -9 -12 -98 -12 -338 0 -343 1 -350 45 -350 44 0 45 7
45 350 0 343 -1 350 -45 350 -12 0 -26 -5 -33 -12z"/>
</g>
</svg>
