<?xml version="1.0" standalone="no"?>
<!DOCTYPE svg PUBLIC "-//W3C//DTD SVG 20010904//EN"
 "http://www.w3.org/TR/2001/REC-SVG-20010904/DTD/svg10.dtd">
<svg version="1.0" xmlns="http://www.w3.org/2000/svg"
 width="300.000000pt" height="304.000000pt" viewBox="0 0 300.000000 304.000000"
 preserveAspectRatio="xMidYMid meet">
<metadata>
Created by potrace 1.10, written by Peter Selinger 2001-2011
</metadata>
<g transform="translate(0.000000,304.000000) scale(0.100000,-0.100000)"
fill="#000000" stroke="none">
<path d="M385 2788 c-3 -7 -4 -571 -3 -1253 l3 -1240 720 0 719 0 208 300 208
300 0 710 0 710 -243 243 -242 242 -683 0 c-537 0 -684 -3 -687 -12z m1271
-344 c-65 -301 -72 -344 -60 -344 7 0 576 167 599 176 13 6 15 -67 15 -676 l0
-682 -202 -294 -203 -293 -693 -3 -692 -3 0 93 0 92 220 0 c213 0 220 1 220
20 0 19 -7 20 -220 20 l-220 0 0 1105 0 1105 648 2 c356 2 648 0 650 -4 2 -3
-26 -145 -62 -314z m324 81 c139 -139 209 -216 199 -219 -93 -29 -542 -156
-545 -154 -5 5 120 588 126 588 3 0 102 -97 220 -215z"/>
<path d="M504 2555 c-3 -6 -3 -183 -2 -395 l3 -385 410 0 410 0 0 393 0 393
-409 2 c-266 1 -410 -2 -412 -8z m795 -385 l-1 -360 -49 0 -49 0 -2 182 -3
183 -85 34 c-47 19 -87 36 -89 38 -2 1 4 12 14 23 28 31 31 117 6 158 -60 95
-193 95 -251 0 -26 -43 -26 -104 1 -147 11 -18 19 -34 17 -35 -2 -1 -41 -18
-88 -37 l-85 -34 -3 -183 -2 -182 -51 0 -50 0 2 360 2 360 384 0 383 0 -1
-360z m-308 264 c10 -9 23 -32 29 -50 16 -48 -11 -102 -63 -128 -34 -16 -42
-17 -74 -5 -46 18 -77 60 -77 104 0 92 116 141 185 79z m92 -253 l87 -34 0
-168 0 -169 -255 0 -255 0 0 168 0 169 87 34 c75 30 98 34 168 34 68 -1 96 -6
168 -34z"/>
<path d="M1510 1879 c-87 -39 -129 -103 -138 -205 -14 -180 133 -299 313 -252
49 13 50 14 47 48 -3 44 -14 55 -40 41 -11 -6 -45 -11 -74 -11 -99 0 -148 53
-148 158 0 103 67 169 160 158 99 -12 94 -13 101 19 7 37 2 50 85 -208 l67
-208 45 3 45 3 80 222 c44 122 77 229 74 237 -7 18 -67 22 -83 6 -6 -6 -32
-80 -60 -165 -47 -149 -63 -181 -65 -132 0 12 -22 85 -47 162 l-47 140 -33 3
c-18 2 -39 -2 -46 -8 -10 -7 -22 -7 -40 0 -46 17 -146 12 -196 -11z m159 -15
c49 -10 36 -22 -18 -16 -28 2 -66 1 -85 -2 -72 -14 -135 -98 -136 -181 0 -136
89 -217 224 -200 37 4 47 3 36 -4 -20 -14 -131 -14 -167 0 -41 15 -91 67 -104
108 -19 56 -14 142 10 189 42 83 139 126 240 106z m159 -85 c12 -41 38 -123
56 -184 19 -60 39 -110 45 -110 7 0 40 84 74 187 40 121 67 188 76 188 7 0 11
-6 8 -14 -3 -8 -36 -100 -73 -206 -89 -250 -85 -250 -170 10 -35 107 -64 199
-64 203 0 5 6 7 12 5 7 -3 23 -38 36 -79z"/>
<path d="M529 1583 c-6 -6 -9 -35 -7 -65 l3 -53 383 -3 383 -2 -3 65 -3 66
-373 2 c-275 1 -376 -1 -383 -10z m731 -58 l0 -35 -350 0 -350 0 0 35 0 35
350 0 350 0 0 -35z"/>
<path d="M524 1406 c-3 -7 -4 -38 -2 -67 l3 -54 383 -3 382 -2 0 70 0 70 -380
0 c-313 0 -382 -2 -386 -14z m736 -56 l0 -30 -350 0 -350 0 0 30 0 30 350 0
350 0 0 -30z"/>
<path d="M537 1233 c-4 -3 -7 -35 -7 -70 l0 -63 745 0 746 0 -3 68 -3 67 -736
3 c-404 1 -739 -1 -742 -5z m1443 -68 l0 -35 -710 0 -710 0 0 35 0 35 710 0
710 0 0 -35z"/>
<path d="M537 1013 c-4 -3 -7 -35 -7 -70 l0 -63 745 0 746 0 -3 68 -3 67 -736
3 c-404 1 -739 -1 -742 -5z m1443 -68 l0 -35 -710 0 -710 0 0 35 0 35 710 0
710 0 0 -35z"/>
<path d="M934 539 c-14 -24 18 -29 152 -27 123 3 139 5 142 21 3 16 -9 17
-142 17 -93 0 -147 -4 -152 -11z"/>
<path d="M2390 2586 l0 -85 -27 -3 -28 -3 -3 -890 -2 -891 69 -169 c38 -94 75
-170 82 -170 7 0 43 76 81 170 l68 169 0 768 0 768 50 0 50 0 0 -380 c0 -331
2 -380 15 -380 13 0 15 63 15 505 l0 505 -95 0 -95 0 0 85 0 85 -90 0 -90 0 0
-84z m140 -16 l0 -70 -50 0 -50 0 0 70 0 70 50 0 50 0 0 -70z m60 -972 l0
-868 -70 0 -70 0 0 486 c0 435 -2 485 -16 482 -13 -3 -15 -56 -14 -485 l1
-483 -26 0 -25 0 0 868 0 867 110 0 110 0 0 -867z m140 776 l0 -92 -50 1 -50
1 0 91 0 91 50 0 50 0 0 -92z m-150 -1683 c0 -11 -95 -241 -100 -241 -4 0 -89
205 -98 235 -1 6 36 10 98 10 55 0 100 -2 100 -4z"/>
<path d="M2425 2010 c-4 -6 -6 -65 -6 -133 0 -103 2 -123 15 -125 14 -3 16 14
16 127 0 118 -8 159 -25 131z"/>
</g>
</svg>
