<?xml version="1.0" standalone="no"?>
<!DOCTYPE svg PUBLIC "-//W3C//DTD SVG 20010904//EN"
 "http://www.w3.org/TR/2001/REC-SVG-20010904/DTD/svg10.dtd">
<svg version="1.0" xmlns="http://www.w3.org/2000/svg"
 width="300.000000pt" height="375.000000pt" viewBox="0 0 300.000000 375.000000"
 preserveAspectRatio="xMidYMid meet">
<metadata>
Created by potrace 1.10, written by Peter Selinger 2001-2011
</metadata>
<g transform="translate(0.000000,375.000000) scale(0.100000,-0.100000)"
fill="#000000" stroke="none">
<path d="M1670 2998 c-17 -73 -20 -99 -11 -120 23 -61 131 -89 183 -49 16 13
31 42 42 83 10 35 22 76 27 92 10 34 12 31 -22 39 -25 6 -26 4 -45 -75 -15
-63 -25 -85 -45 -101 -24 -17 -30 -18 -55 -6 -37 18 -40 46 -16 142 l20 75
-22 6 c-11 3 -24 6 -28 6 -3 0 -16 -42 -28 -92z"/>
<path d="M1145 2978 c-10 -15 -18 -19 -23 -12 -4 7 -15 8 -29 3 l-23 -8 32
-88 c17 -48 32 -89 33 -91 2 -2 14 0 27 3 l25 6 -21 58 c-21 62 -17 90 15 98
12 4 18 11 15 20 -3 8 -6 19 -6 24 0 17 -29 9 -45 -13z"/>
<path d="M1946 2883 c-31 -64 -55 -117 -54 -118 2 -1 13 -8 26 -14 22 -12 25
-8 78 105 30 64 53 118 52 119 -2 1 -13 7 -24 13 -20 11 -25 4 -78 -105z"/>
<path d="M2199 2924 c-6 -8 -67 -58 -136 -110 -68 -53 -125 -99 -128 -103 -2
-4 5 -12 15 -19 16 -9 36 3 152 94 173 138 164 128 134 142 -19 9 -27 8 -37
-4z"/>
<path d="M924 2891 c-90 -55 -55 -181 50 -181 36 0 52 6 81 31 40 36 43 45 15
54 -15 5 -26 0 -41 -19 -14 -17 -30 -26 -49 -26 -50 0 -42 17 25 56 36 21 65
41 65 45 0 4 -14 19 -31 33 -36 31 -72 33 -115 7z m70 -27 c9 -3 16 -10 16
-14 0 -9 -66 -50 -81 -50 -18 0 -9 39 13 54 25 18 30 19 52 10z"/>
<path d="M1451 2896 c-9 -11 -10 -20 -1 -36 13 -24 38 -23 53 1 23 37 -25 68
-52 35z"/>
<path d="M2223 2797 c-74 -79 -93 -107 -93 -142 0 -41 40 -92 87 -111 46 -20
82 -2 158 75 l59 61 -20 20 -20 20 -63 -65 c-69 -70 -96 -80 -131 -45 -32 32
-24 55 45 129 l65 69 -24 15 c-22 15 -25 14 -63 -26z"/>
<path d="M743 2761 c-18 -11 -35 -31 -39 -45 -3 -14 -11 -23 -18 -20 -7 3 -19
-2 -26 -11 -15 -18 -17 -15 90 -133 74 -82 74 -82 94 -62 20 20 20 20 -13 54
l-32 33 25 7 c68 17 89 101 39 156 -37 39 -78 47 -120 21z m62 -37 c8 -4 22
-19 30 -34 13 -25 13 -30 -6 -54 -24 -31 -52 -33 -79 -6 -27 27 -26 65 2 84
25 18 30 19 53 10z"/>
<path d="M2468 2590 c-8 -19 -21 -52 -28 -73 -13 -33 -17 -37 -50 -36 -19 0
-56 4 -82 8 -53 9 -56 6 -30 -27 14 -18 29 -23 70 -25 28 -1 52 -6 52 -12 0
-5 -9 -30 -20 -54 -19 -41 -19 -44 -3 -72 l17 -29 31 78 32 77 44 -3 c24 -1
59 -5 77 -8 l34 -5 -18 30 c-17 28 -23 31 -71 31 l-52 0 21 46 c18 43 19 50 5
78 l-14 31 -15 -35z"/>
<path d="M578 2574 c-59 -31 -75 -112 -33 -162 57 -68 155 -35 179 61 9 36
-16 82 -54 102 -36 19 -57 18 -92 -1z m65 -45 c43 -23 50 -68 15 -93 -31 -22
-45 -20 -73 9 -30 29 -31 45 -5 73 24 25 33 27 63 11z"/>
<path d="M378 2405 c-6 -14 -9 -26 -7 -28 2 -2 57 -28 122 -57 99 -45 120 -52
127 -40 15 24 11 38 -12 46 -13 4 -67 29 -121 55 l-98 48 -11 -24z"/>
<path d="M405 2244 c-53 -57 -22 -156 51 -170 46 -8 79 7 104 48 19 31 27 98
14 111 -15 15 -41 -13 -37 -38 6 -29 -20 -75 -42 -75 -19 0 -19 2 4 83 l18 67
-44 0 c-35 0 -49 -6 -68 -26z m65 -26 c0 -26 -21 -88 -30 -88 -15 0 -30 37
-23 57 9 27 24 43 39 43 8 0 14 -6 14 -12z"/>
<path d="M2605 2212 c-183 -34 -177 -32 -172 -55 3 -12 11 -48 17 -80 16 -82
50 -118 116 -124 61 -5 108 21 130 74 13 31 14 46 3 102 -19 103 -13 98 -94
83z m49 -74 c14 -53 7 -86 -25 -112 -62 -53 -129 -15 -140 79 -4 28 -2 30 51
41 88 19 107 17 114 -8z"/>
<path d="M347 2044 c-4 -23 2 -29 59 -57 35 -17 64 -34 64 -37 0 -3 -30 -14
-68 -25 -61 -18 -67 -23 -70 -49 -3 -20 0 -27 10 -23 7 3 52 18 101 33 77 24
87 30 87 51 0 13 0 26 1 30 1 4 -39 29 -89 55 l-90 48 -5 -26z"/>
<path d="M2499 1891 c-25 -25 -29 -37 -29 -84 0 -33 5 -59 13 -66 21 -17 36 6
30 46 -6 36 13 86 30 80 6 -2 9 -37 8 -81 l-2 -79 32 7 c39 8 63 28 79 67 16
37 6 75 -30 110 -40 40 -91 40 -131 0z m131 -74 c0 -21 -26 -57 -42 -57 -9 0
-11 94 -1 103 10 11 43 -24 43 -46z"/>
<path d="M381 1813 c-31 -26 -41 -72 -26 -117 17 -48 40 -65 91 -66 68 0 112
65 92 137 -14 54 -27 68 -46 50 -11 -11 -11 -19 -3 -35 15 -29 14 -77 -3 -91
-19 -16 -22 -8 -31 72 -6 61 -9 67 -30 67 -12 0 -32 -8 -44 -17z m52 -90 c6
-52 0 -59 -30 -31 -27 25 -29 50 -7 73 21 21 30 10 37 -42z"/>
<path d="M2450 1668 c-25 -55 -25 -93 0 -118 35 -35 68 -21 95 39 10 23 24 41
32 41 18 0 17 -51 -1 -76 -10 -13 -11 -23 -4 -31 17 -21 28 -15 44 22 31 75 9
139 -45 133 -20 -2 -32 -15 -51 -50 -14 -27 -29 -48 -33 -48 -19 0 -19 37 0
71 15 27 17 41 10 48 -18 18 -27 13 -47 -31z"/>
<path d="M423 1585 c-37 -16 -63 -60 -63 -107 0 -18 12 -65 26 -105 l26 -72
37 18 c20 10 68 30 106 45 105 39 101 32 61 119 -49 108 -108 139 -193 102z
m106 -51 c13 -9 31 -35 41 -58 l19 -40 -57 -24 c-31 -13 -67 -27 -79 -32 -20
-8 -23 -4 -38 40 -14 42 -14 54 -3 77 13 28 50 53 78 53 9 0 26 -7 39 -16z"/>
<path d="M2391 1504 c-9 -21 -8 -26 12 -33 12 -5 54 -23 92 -39 l70 -31 9 25
c4 14 6 26 5 28 -2 2 -43 19 -90 38 l-87 36 -11 -24z"/>
<path d="M2297 1450 c-14 -11 -35 -40 -46 -63 -32 -67 -18 -94 86 -162 70 -46
87 -54 99 -44 9 7 13 21 11 30 -3 12 2 20 14 24 23 8 49 55 49 90 0 16 -12 38
-29 56 -55 55 -142 27 -157 -51 -8 -36 -16 -38 -33 -6 -15 28 -3 59 35 92 16
13 23 26 18 37 -8 22 -16 21 -47 -3z m151 -102 c29 -29 1 -98 -40 -98 -29 0
-60 37 -53 63 13 42 66 62 93 35z"/>
<path d="M2610 1425 c-19 -23 -8 -50 20 -50 19 0 26 6 28 24 5 35 -26 53 -48
26z"/>
<path d="M649 1247 c-47 -31 -61 -86 -33 -125 12 -15 30 -31 42 -37 29 -13 28
-18 -8 -49 -27 -22 -29 -28 -18 -46 7 -11 15 -20 18 -20 12 0 195 172 195 183
0 7 -10 16 -22 22 -13 5 -23 16 -23 23 0 8 -13 27 -29 43 -36 36 -75 38 -122
6z m107 -52 c19 -30 11 -60 -22 -82 -24 -15 -27 -15 -52 4 -36 27 -39 49 -11
79 29 31 64 31 85 -1z"/>
<path d="M2224 1229 c-17 -19 -17 -21 24 -62 23 -24 42 -52 42 -63 0 -21 -28
-54 -45 -54 -5 0 -32 23 -60 50 l-51 51 -19 -21 c-19 -22 -19 -22 37 -76 67
-64 103 -71 143 -28 14 15 25 33 25 40 0 8 8 14 19 14 10 0 23 6 29 13 7 9 -8
31 -58 84 -67 71 -68 72 -86 52z"/>
<path d="M863 1096 c4 -10 7 -20 7 -22 0 -2 8 -4 18 -4 25 0 62 -41 62 -69 0
-20 -5 -18 -65 24 -36 25 -67 45 -69 45 -2 0 -9 -13 -16 -29 -27 -66 26 -141
99 -141 60 0 109 61 96 120 -9 39 -56 80 -100 87 -34 5 -38 4 -32 -11z m53
-148 c-38 -21 -94 18 -80 56 5 13 14 10 51 -16 39 -26 43 -32 29 -40z"/>
<path d="M2003 1051 c-39 -18 -63 -45 -63 -70 0 -19 28 -12 55 15 17 17 34 24
52 22 44 -5 36 -21 -27 -56 -33 -18 -60 -39 -60 -46 0 -27 41 -51 87 -51 38 0
49 5 74 33 39 43 39 91 2 131 -37 40 -68 45 -120 22z m98 -114 c-11 -28 -41
-42 -71 -32 -29 9 -25 17 23 46 47 29 63 25 48 -14z"/>
<path d="M1029 888 c-76 -109 -87 -128 -71 -128 6 0 17 -2 25 -5 9 -4 31 21
67 74 30 45 55 80 56 78 1 -1 4 -44 7 -96 5 -87 7 -96 28 -103 12 -5 25 -5 28
0 3 4 29 39 56 77 l50 70 3 -98 c2 -74 6 -97 17 -97 7 0 20 -3 29 -6 14 -5 16
3 16 53 0 33 -3 94 -6 136 -6 71 -9 77 -33 85 -25 9 -29 5 -76 -64 -28 -40
-53 -73 -57 -74 -5 0 -8 40 -8 89 l0 89 -30 10 c-29 11 -30 10 -101 -90z"/>
<path d="M1861 979 c-17 -7 -21 -14 -16 -27 4 -9 14 -37 24 -60 l16 -44 -27
-23 c-19 -16 -25 -29 -21 -44 7 -28 17 -27 41 4 13 16 23 22 27 15 5 -9 40 -6
52 4 3 2 -65 177 -69 181 -2 2 -14 -1 -27 -6z"/>
<path d="M1614 906 c-11 -28 4 -48 33 -44 22 2 28 8 28 28 0 20 -6 26 -28 28
-18 2 -29 -2 -33 -12z"/>
</g>
</svg>
